HIERARCHY
ROOT Hips
{
	OFFSET -0.179506 -22.333345 2.821913
	CHANNELS 6 Xposition Yposition Zposition Zrotation Yrotation Xrotation 
	JOINT LeftUpLeg
	{
		OFFSET 6.951974 -9.140623 -0.681533
		CHANNELS 3 Zrotation Yrotation Xrotation
		JOINT LeftLeg
		{
			OFFSET 3.427654 -37.519855 -0.449580
			CHANNELS 3 Zrotation Yrotation Xrotation
			JOINT LeftFoot
			{
				OFFSET -1.359570 -39.796059 -4.369333
				CHANNELS 3 Zrotation Yrotation Xrotation
				JOINT LeftToe
				{
					OFFSET 2.635814 -5.579078 11.928840
					CHANNELS 3 Zrotation Yrotation Xrotation
					End Site
					{
						OFFSET 0.000000 0.000000 0.000000
					}
				}
			}
		}
	}
	JOINT RightUpLeg
	{
		OFFSET -6.767048 -9.052170 -0.431982
		CHANNELS 3 Zrotation Yrotation Xrotation
		JOINT RightLeg
		{
			OFFSET -3.829005 -38.256897 -0.885003
			CHANNELS 3 Zrotation Yrotation Xrotation
			JOINT RightFoot
			{
				OFFSET 1.577377 -39.841461 -4.231180
				CHANNELS 3 Zrotation Yrotation Xrotation
				JOINT RightToe
				{
					OFFSET -2.537174 -4.814398 12.334795
					CHANNELS 3 Zrotation Yrotation Xrotation
					End Site
					{
						OFFSET 0.000000 0.000000 0.000000
					}
				}
			}
		}
	}
	JOINT Spine
	{
		OFFSET -0.253288 10.896323 -2.669631
		CHANNELS 3 Zrotation Yrotation Xrotation
		JOINT Spine1
		{
			OFFSET 0.548704 13.518043 0.109247
			CHANNELS 3 Zrotation Yrotation Xrotation
			JOINT Spine2
			{
				OFFSET 0.145701 5.292222 2.542457
				CHANNELS 3 Zrotation Yrotation Xrotation
				JOINT Neck
				{
					OFFSET -0.277840 21.387037 -4.285703
					CHANNELS 3 Zrotation Yrotation Xrotation
					JOINT Head
					{
						OFFSET 0.515184 6.496960 5.134897
						CHANNELS 3 Zrotation Yrotation Xrotation
						End Site
						{
							OFFSET 0.000000 0.000000 0.000000
						}
					}
				}
				JOINT LeftShoulder
				{
					OFFSET 7.884473 12.174932 -3.408961
					CHANNELS 3 Zrotation Yrotation Xrotation
					JOINT LeftArm
					{
						OFFSET 9.097692 3.046888 -0.886815
						CHANNELS 3 Zrotation Yrotation Xrotation
						JOINT LeftForeArm
						{
							OFFSET 25.961220 -1.277207 -2.745643
							CHANNELS 3 Zrotation Yrotation Xrotation
							JOINT LeftHand
							{
								OFFSET 24.923361 0.898606 -0.117091
								CHANNELS 3 Zrotation Yrotation Xrotation
								End Site
								{
									OFFSET 0.000000 0.000000 0.000000
								}
							}
						}
					}
				}
				JOINT RightShoulder
				{
					OFFSET -8.175920 11.883285 -3.861528
					CHANNELS 3 Zrotation Yrotation Xrotation
					JOINT RightArm
					{
						OFFSET -9.601238 3.255117 -0.914307
						CHANNELS 3 Zrotation Yrotation Xrotation
						JOINT RightForeArm
						{
							OFFSET -25.374195 -1.332924 -2.140099
							CHANNELS 3 Zrotation Yrotation Xrotation
							JOINT RightHand
							{
								OFFSET -25.529810 0.777228 -0.555919
								CHANNELS 3 Zrotation Yrotation Xrotation
								End Site
								{
									OFFSET 0.000000 0.000000 0.000000
								}
							}
						}
					}
				}
			}
		}
	}
}
MOTION
Frames: 13
Frame Time: 0.033333
144.876465 -18.037058 100.074371 178.570875 -10.451780 91.228768 14.606411 2.837752 -5.333135 -4.805740 -1.728897 1.388000 -7.138323 3.431171 7.524161 nan nan nan -21.888476 -5.323853 -2.104401 5.401802 -1.239210 5.010715 9.941477 0.504435 -1.218886 nan nan nan 6.352392 0.849689 9.057931 -0.977706 -1.425170 1.838975 -1.948334 -0.499794 1.127573 -6.124885 6.024423 -1.051984 0.780046 -2.127101 -0.867074 -25.637184 1.681214 3.048780 -60.873710 -8.150070 10.347009 11.189808 -16.678404 -0.140485 -2.764903 -20.179781 -14.178403 22.960625 1.205771 5.663058 53.791517 7.613537 6.820581 -15.887545 20.850615 -15.917001 -0.525773 11.751236 -15.435153 
144.439026 -17.946817 100.030914 178.624503 -10.552659 91.346242 14.977644 3.021798 -5.359614 -4.756833 -1.706198 1.427345 -7.163895 3.373008 7.817517 nan nan nan -22.254361 -5.464294 -2.332684 5.361377 -1.229594 5.347018 10.007112 0.592882 -1.349351 nan nan nan 6.306606 0.833828 8.928631 -0.962548 -1.435534 1.791756 -1.927176 -0.474210 1.144965 -5.774992 5.992433 -0.900504 0.345788 -1.842041 -1.293172 -25.761057 1.836354 2.783619 -60.735076 -8.074020 10.401859 11.103560 -16.560172 -0.203607 -2.668275 -19.963767 -14.032983 22.796609 1.080775 5.576312 53.775189 7.584945 6.834159 -15.838118 20.706238 -16.021563 -0.543297 11.728832 -15.362222 
144.025635 -17.814636 99.990280 178.624708 -10.630310 91.333949 15.339091 3.301782 -5.254406 -4.657758 -1.764739 1.603373 -7.194500 3.396584 8.036258 nan nan nan -22.595833 -5.604222 -2.370999 5.331389 -1.160161 5.617476 10.061080 0.676803 -1.479195 nan nan nan 6.168969 0.884858 8.866039 -0.812675 -1.467445 1.800772 -1.777742 -0.440818 1.209885 -4.983573 5.899131 -0.728237 -0.625156 -1.114203 -1.476382 -26.077990 1.966693 2.493962 -60.460096 -7.967395 10.497069 10.965032 -16.488873 -0.288342 -2.522264 -19.667257 -14.101600 22.452070 0.947086 5.528839 53.894469 7.602150 6.909997 -15.981597 20.597274 -16.340634 -0.546149 11.534447 -15.497731 
143.564392 -17.764786 99.948792 178.745629 -10.739195 91.313649 15.622147 3.263347 -5.290661 -4.539793 -1.719390 1.854975 -7.141873 3.462567 8.314088 nan nan nan -23.022494 -5.554822 -2.501786 5.389184 -1.299614 5.987943 10.119683 0.656939 -1.645510 nan nan nan 6.064156 0.794512 8.779803 -0.906787 -1.463552 1.891628 -2.007738 -0.410895 1.078956 -5.966388 5.969642 -1.058415 0.569361 -2.501657 -1.150114 -25.588590 1.932428 2.687175 -60.819022 -8.184411 10.352127 11.403641 -16.118006 -0.581626 -3.052074 -20.068501 -13.984839 22.981573 1.171164 5.696495 53.537305 7.504835 6.608232 -16.041861 20.300926 -16.415776 -0.573260 11.745654 -15.382097 
143.085800 -17.728472 99.915039 178.855242 -10.833476 91.241961 15.945293 3.261004 -5.248221 -4.466295 -1.666149 2.039627 -7.166990 3.534965 8.606105 nan nan nan -23.455510 -5.681678 -2.632287 5.463295 -1.263436 6.474611 10.121062 0.694982 -1.806248 nan nan nan 6.025666 0.824934 8.836065 -0.889480 -1.531452 1.948350 -1.748266 -0.512182 1.280982 -5.019000 5.807286 -0.930463 -0.575039 -1.437564 -1.532586 -26.112963 1.962772 2.404725 -60.340559 -8.148520 10.301331 11.141685 -16.322289 -0.427189 -2.560897 -19.746990 -14.233103 22.598175 1.037079 5.587184 53.541767 7.756447 6.745596 -16.091702 20.342766 -16.424947 -0.620921 11.325143 -15.360907 
142.604736 -17.644651 99.842140 178.816429 -10.901969 91.323960 16.353397 3.340866 -5.202835 -4.476704 -1.425047 2.123828 -7.203739 3.528543 8.967437 nan nan nan -23.882105 -5.699758 -2.941575 5.535661 -1.364164 6.985317 10.143987 0.841343 -1.974202 nan nan nan 6.026023 0.838800 8.778720 -0.950588 -1.377199 1.811756 -1.881420 -0.527284 1.346620 -5.207359 6.006679 -1.147304 -0.380058 -1.882550 -1.455647 -25.976704 1.937242 2.574722 -60.293704 -8.202144 10.161605 11.225502 -16.329770 -0.457361 -2.766666 -19.905484 -14.404800 22.786579 0.964946 5.673535 53.325628 7.656776 6.619825 -16.085906 20.370565 -16.261543 -0.477631 11.289801 -15.415464 
142.100388 -17.614956 99.761169 178.941079 -10.942836 91.453094 16.692223 3.561426 -5.488082 -4.414747 -1.468688 2.486479 -7.265102 3.435353 9.293640 nan nan nan -24.251018 -5.739588 -3.300320 5.525175 -1.523615 7.503897 10.285867 0.906834 -2.154663 nan nan nan 6.065528 0.870908 8.752385 -0.932849 -1.328524 1.615464 -1.874012 -0.624202 1.436154 -4.766920 6.029691 -1.285978 -0.851764 -1.554505 -1.386842 -26.045452 1.913364 2.560169 -60.170843 -8.209665 10.144078 11.141211 -16.291830 -0.479438 -2.656643 -19.896864 -14.696710 22.568912 0.875925 5.589413 53.353391 7.645557 6.674703 -16.087216 20.184885 -16.274925 -0.327406 11.212630 -15.559635 
141.594635 -17.589596 99.692192 179.052089 -11.019919 91.484906 16.966953 3.790146 -5.630529 -4.344671 -1.564346 2.800546 -7.310481 3.321146 9.573240 nan nan nan -24.649968 -5.818620 -3.599661 5.501500 -1.687548 8.053576 10.392441 0.970235 -2.346751 nan nan nan 6.034625 0.762925 8.747479 -1.100238 -1.353077 1.679387 -2.098660 -0.584004 1.230942 -5.589792 6.140436 -1.663313 0.152660 -2.707899 -1.268364 -25.659027 1.933620 2.686569 -60.381901 -8.325754 10.059063 11.511479 -16.048261 -0.672333 -2.970077 -20.265944 -14.559288 23.116423 1.147731 5.736478 52.977242 7.575348 6.404257 -16.104276 19.798992 -16.432503 -0.189674 11.561096 -15.586245 
141.097916 -17.469563 99.629990 178.826980 -11.010344 91.238808 17.482038 3.590397 -4.989862 -4.425983 -1.439132 2.698443 -7.302396 3.588987 9.806610 nan nan nan -24.974888 -5.979593 -3.641337 5.486040 -1.448983 8.607057 10.483655 1.092152 -2.505151 nan nan nan 6.034379 0.812728 8.881146 -1.062721 -1.357638 2.040394 -1.906120 -0.512586 1.287658 -4.818823 6.076301 -1.647187 -0.754506 -1.761947 -1.388945 -26.179154 1.872553 2.550300 -59.901711 -8.303788 9.938523 11.360504 -16.263718 -0.634940 -2.447006 -19.980854 -14.784575 22.744524 1.209124 5.821392 53.008382 7.919209 6.411138 -16.127013 19.716131 -16.634743 -0.300623 11.278619 -15.693420 
140.542847 -17.486877 99.559387 179.030826 -11.064077 91.257192 17.734874 3.841194 -5.274125 -4.370396 -1.566428 3.138560 -7.344570 3.394214 10.086560 nan nan nan -25.395003 -6.165126 -3.957149 5.476751 -1.698273 9.231824 10.613604 1.266075 -2.663670 nan nan nan 6.099426 0.699352 9.233361 -1.129951 -1.354270 1.486644 -2.176037 -0.505629 1.184500 -5.393837 6.127516 -2.077149 -0.057364 -2.407271 -0.653074 -25.776594 1.869865 2.767851 -60.091886 -8.295307 10.026238 11.497829 -16.183708 -0.695690 -2.237170 -20.089853 -15.009085 22.979329 1.193447 5.850467 52.853159 7.782273 6.262351 -16.022522 19.422622 -16.574563 -0.496892 11.338395 -15.693313 
140.047592 -17.328571 99.449074 178.730823 -11.122024 91.287528 18.169988 3.880363 -4.868980 -4.473234 -1.345516 3.030845 -7.335505 3.371644 10.354814 nan nan nan -25.797610 -6.196449 -4.279955 5.456676 -1.650483 9.829836 10.718285 1.558029 -2.861599 nan nan nan 5.921077 0.784167 9.253590 -1.109601 -1.098277 1.335394 -2.179420 -0.491200 1.204781 -5.369641 6.308989 -2.012212 -0.059625 -2.535623 -0.622519 -25.694733 1.953511 2.872169 -60.092582 -8.263498 9.926724 11.550184 -16.195529 -0.748251 -1.941039 -20.084184 -15.216697 23.036669 1.090035 5.928418 52.737762 7.783690 6.196495 -15.991780 19.253764 -16.472213 -0.602226 11.321070 -15.528258 
139.546585 -17.194084 99.333336 178.469348 -11.095724 91.186079 18.716843 3.581276 -4.258289 -4.582571 -1.241146 2.723754 -7.395661 3.567552 10.595879 nan nan nan -26.140814 -6.303407 -4.479258 5.515186 -1.408891 10.431571 10.790437 1.709439 -3.080633 nan nan nan 5.870367 0.906566 9.352144 -1.147980 -0.985356 1.311914 -2.079295 -0.514329 1.363902 -5.179991 6.414403 -1.986714 -0.404795 -2.463418 -0.855425 -25.802336 1.963567 2.935412 -59.940434 -8.273778 9.698571 11.580070 -16.329571 -0.724905 -1.552996 -20.086541 -15.520590 22.990244 1.075932 6.031388 52.578975 7.911691 6.181017 -15.892020 19.349378 -16.259248 -0.739914 11.143734 -15.487272 
139.012924 -17.259056 99.200340 178.682784 -10.993654 91.465224 19.064133 4.331388 -4.944100 -4.402544 -1.786821 3.295718 -7.709976 3.198460 10.774515 nan nan nan -26.373859 -6.634088 -5.146981 5.563695 -1.652364 11.228469 10.774961 1.856365 -3.279831 nan nan nan 5.882951 0.692385 9.129384 -1.066240 -0.978674 1.271267 -2.113577 -0.494073 1.455399 -4.846634 6.268249 -2.187813 -0.785650 -2.394507 -0.774681 -25.835698 1.987936 2.808460 -59.795386 -8.236027 9.894820 11.516110 -16.500194 -0.878013 -1.053293 -19.880578 -15.814199 22.931535 1.050968 5.873728 52.408742 7.978935 6.250290 -15.698303 19.417975 -16.284972 -0.902279 10.924303 -15.685521 
